<svg xmlns="http://www.w3.org/2000/svg" viewBox="0 0 320.5 320.5"><defs><style>.cls-1{fill:#6081ff;}.cls-2{fill:#fff;}</style></defs><g id="Camada_2" data-name="Camada 2"><g id="Camada_2-2" data-name="Camada 2"><circle class="cls-1" cx="160.25" cy="160.25" r="160.25"/><path class="cls-2" d="M160.25,28.5A131.75,131.75,0,1,0,292,160.25,131.75,131.75,0,0,0,160.25,28.5Zm0,239.5A107.75,107.75,0,1,1,268,160.25,107.75,107.75,0,0,1,160.25,268Z"/><path class="cls-2" d="M200.52,112.47H120.47A31.49,31.49,0,0,0,89,144v33a31.48,31.48,0,0,0,31.48,31.48h80.05A31.47,31.47,0,0,0,232,177V144A31.48,31.48,0,0,0,200.52,112.47ZM194,157l18.8-15a17.77,17.77,0,0,1,1.19,6.38v24.19a17.56,17.56,0,0,1-.46,4Zm2.09-26.56c.41,0,.82,0,1.22.06l-36.57,29.25-36.61-29.27c.26,0,.51,0,.77,0ZM107.56,177a17.65,17.65,0,0,1-.57-4.38V148.38a17.64,17.64,0,0,1,1.31-6.68L127.47,157Zm88.53,13.52H124.9a18,18,0,0,1-4.05-.47l21.26-21.26,11.3,9a9.66,9.66,0,0,0,14.66,0l11.3-9,21.16,21.16A18.07,18.07,0,0,1,196.09,190.47Z"/></g></g></svg>