<svg xmlns="http://www.w3.org/2000/svg" viewBox="0 0 320.5 320.5"><defs><style>.cls-1{fill:#6081ff;}.cls-2{fill:#fff;}</style></defs><g id="Camada_2" data-name="Camada 2"><g id="Camada_4" data-name="Camada 4"><circle class="cls-1" cx="160.25" cy="160.25" r="160.25"/><path class="cls-2" d="M160.25,28.5A131.75,131.75,0,1,0,292,160.25,131.75,131.75,0,0,0,160.25,28.5Zm0,239.5A107.75,107.75,0,1,1,268,160.25,107.75,107.75,0,0,1,160.25,268Z"/><path class="cls-2" d="M219.25,154.12a18.79,18.79,0,1,0-18.77.08,33,33,0,0,0-11,5.79,43.65,43.65,0,0,0-16.95-9.49,25,25,0,1,0-25,.11A43.69,43.69,0,0,0,131,160a33,33,0,0,0-11-5.79,18.78,18.78,0,1,0-18.77-.08,32.82,32.82,0,0,0-23.57,31.49c0,16.84,14.69,15.11,32.81,15.11,2.5,0,4.93,0,7.27,0,4.61,13.47,21.88,11.8,42.49,11.8s37.88,1.67,42.49-11.8c2.34,0,4.77,0,7.27,0,18.12,0,32.81,1.73,32.81-15.11A32.82,32.82,0,0,0,219.25,154.12Zm-9.46-21.19a5,5,0,1,1-5,5A5,5,0,0,1,209.79,132.93ZM160,122.28a6.61,6.61,0,1,1-6.61,6.61A6.62,6.62,0,0,1,160,122.28Zm-49.25,10.65a5,5,0,1,1-5,5A5,5,0,0,1,110.71,132.93Zm-.22,51.81c-9.06,0-17.7.87-15.12-5.52a16.25,16.25,0,0,1,15.12-10,16.45,16.45,0,0,1,10.59,3.85,43.33,43.33,0,0,0-3.86,11.73C115.13,184.8,112.82,184.74,110.49,184.74Zm49.76,6.54c-12.07,0-23.58,1.15-20.16-7.3a21.86,21.86,0,0,1,40.29,0C183.83,192.43,172.32,191.28,160.25,191.28ZM210,184.74c-2.33,0-4.64.06-6.73,0a43.33,43.33,0,0,0-3.86-11.73A16.45,16.45,0,0,1,210,169.2a16.25,16.25,0,0,1,15.12,10C227.71,185.61,219.07,184.74,210,184.74Z"/></g></g></svg>